<?xml version="1.0" standalone="no"?><!DOCTYPE svg PUBLIC "-//W3C//DTD SVG 1.1//EN" "http://www.w3.org/Graphics/SVG/1.1/DTD/svg11.dtd"><svg t="1747721410178" class="icon" viewBox="0 0 1024 1024" version="1.1" xmlns="http://www.w3.org/2000/svg" p-id="31699" xmlns:xlink="http://www.w3.org/1999/xlink" width="200" height="200"><path d="M0 0m512 0l0 0q512 0 512 512l0 0q0 512-512 512l0 0q-512 0-512-512l0 0q0-512 512-512Z" fill="#ffffff" fill-opacity=".05" p-id="31700"></path><path d="M408.746667 326.178133q2.3552-3.925333 5.802666-7.338666 10.581333-10.376533 25.463467-10.376534h143.9744q14.882133 0 25.429333 10.376534 3.4816 3.413333 5.802667 7.338666h-206.472533z m245.828266 3.8912A71.68 71.68 0 0 0 584.021333 273.066667H439.978667a71.68 71.68 0 0 0-70.587734 57.002666 71.133867 71.133867 0 0 0-47.377066 55.261867l-47.991467 283.170133C266.752 711.645867 300.578133 750.933333 345.088 750.933333h333.892267c44.475733 0 78.301867-39.253333 70.997333-82.432l-47.991467-283.170133a71.133867 71.133867 0 0 0-47.377066-55.261867zM317.610667 703.010133q-10.786133-12.4928-8.055467-28.672l47.991467-283.204266q5.0176-29.559467 35.498666-29.559467h237.909334q30.481067 0 35.498666 29.559467l47.991467 283.170133q2.730667 16.213333-8.055467 28.706133-10.786133 12.526933-27.4432 12.526934h-333.892266q-16.6912 0-27.4432-12.526934z m298.734933-224.631466a17.476267 17.476267 0 0 0-1.672533-23.1424 18.193067 18.193067 0 0 0-27.101867 1.911466l-97.1776 127.419734-57.5488-42.496a18.2272 18.2272 0 0 0-23.552 1.672533 17.5104 17.5104 0 0 0 1.9456 26.658133l71.918933 53.0432 0.068267 0.068267a18.193067 18.193067 0 0 0 25.1904-3.549867l107.9296-141.585066z" fill="#ffffff" p-id="31701"></path></svg>